<?xml version="1.0" standalone="no"?>
<!DOCTYPE svg PUBLIC "-//W3C//DTD SVG 20010904//EN"
 "http://www.w3.org/TR/2001/REC-SVG-20010904/DTD/svg10.dtd">
<svg version="1.0" xmlns="http://www.w3.org/2000/svg"
 width="299.000000pt" height="299.000000pt" viewBox="0 0 299.000000 299.000000"
 preserveAspectRatio="xMidYMid meet">
<metadata>
Created by potrace 1.14, written by Peter Selinger 2001-2017
</metadata>
<g transform="translate(0.000000,299.000000) scale(0.100000,-0.100000)"
fill="#000000" stroke="none">
<path d="M0 1495 l0 -1375 1495 0 1495 0 0 1375 0 1375 -1495 0 -1495 0 0
-1375z m2790 0 l0 -1175 -1295 0 -1295 0 0 1175 0 1175 1295 0 1295 0 0 -1175z"/>
<path d="M810 1451 l0 -441 80 0 80 0 0 160 0 160 85 0 c236 0 360 87 373 261
7 99 -16 167 -75 218 -71 63 -117 73 -345 79 l-198 4 0 -441z m397 289 c56
-24 78 -71 69 -145 -11 -97 -62 -131 -208 -141 l-98 -7 0 163 0 163 97 -7 c60
-4 113 -14 140 -26z"/>
<path d="M1600 1450 l0 -440 75 0 75 0 0 128 0 127 60 75 c33 41 63 76 68 78
4 1 56 -83 115 -187 60 -103 113 -196 120 -205 10 -14 27 -16 94 -14 l81 3
-150 255 c-83 140 -152 262 -155 270 -2 9 52 87 126 180 l129 165 -75 3 c-42
2 -82 1 -88 -2 -7 -2 -81 -93 -166 -201 l-154 -198 -3 202 -2 201 -75 0 -75 0
0 -440z"/>
</g>
</svg>
